<svg xmlns="http://www.w3.org/2000/svg" viewBox="0 0 64 64">
  <rect width="64" height="64" rx="14" fill="#221913"/>
  <!-- flame (outer) -->
  <path d="M33 9c1 8-4 10-7 14-3 4-5 8-5 13a11 11 0 0 0 22 0c0-4-1-7-3-10 1 1 2 3 2 5 2-7-3-13-6-17 0 3-1 5-3 6 2-4 1-8 0-11z" fill="#bd521e"/>
  <!-- flame (inner) -->
  <path d="M32 24c1 4-2 6-4 9-2 2-3 5-3 8a7 7 0 0 0 14 0c0-3-1-5-3-7 1 4-1 6-3 7 2-4 1-7 0-9-1-2-1-5 2-8z" fill="#c89b46"/>
  <!-- plus -->
  <g fill="#efe6d5">
    <rect x="29.5" y="45" width="5" height="13" rx="1"/>
    <rect x="25.5" y="49" width="13" height="5" rx="1"/>
  </g>
</svg>
